<svg width="900" height="900" viewBox="0 0 900 900" fill="none" xmlns="http://www.w3.org/2000/svg">
  <rect width="900" height="900" rx="450" fill="#0A1324"/>
  <circle cx="450" cy="450" r="448" stroke="url(#paint0_linear)" stroke-width="4"/>
  <circle cx="450" cy="248" r="210" fill="url(#paint1_radial)"/>
  <circle cx="450" cy="308" r="154" fill="#E3C3B7"/>
  <path d="M301 297C301 208.083 373.083 136 462 136C550.917 136 623 208.083 623 297V322H301V297Z" fill="#10151E"/>
  <path d="M325 345C353 416 548 418 582 345" stroke="#10151E" stroke-width="30" stroke-linecap="round"/>
  <path d="M388 370C412 389 488 389 512 370" stroke="#2B1B19" stroke-width="16" stroke-linecap="round"/>
  <circle cx="389" cy="302" r="18" fill="#2C231F"/>
  <circle cx="520" cy="302" r="18" fill="#2C231F"/>
  <path d="M366 270C390 253 416 248 444 254" stroke="#10151E" stroke-width="14" stroke-linecap="round"/>
  <path d="M487 254C515 248 541 253 565 270" stroke="#10151E" stroke-width="14" stroke-linecap="round"/>
  <path d="M426 764L282 465H618L474 764H426Z" fill="#BC5A44"/>
  <path d="M393 464H507V809H393V464Z" fill="#C7644E"/>
  <path d="M447 462L386 810" stroke="#A34E3A" stroke-width="10" stroke-linecap="round"/>
  <path d="M308 472C329 456 371 438 449 438C527 438 569 456 590 472V514C553 495 510 486 449 486C388 486 345 495 308 514V472Z" fill="#C96750"/>
  <path d="M288 432H612L555 493H345L288 432Z" fill="#14263F"/>
  <rect x="355" y="430" width="45" height="280" rx="20" fill="#1D355D"/>
  <rect x="500" y="430" width="45" height="280" rx="20" fill="#1D355D"/>
  <rect x="355" y="430" width="45" height="280" rx="20" stroke="#ECF3FF" stroke-width="10" stroke-dasharray="52 38"/>
  <rect x="500" y="430" width="45" height="280" rx="20" stroke="#ECF3FF" stroke-width="10" stroke-dasharray="52 38"/>
  <path d="M402 457H500" stroke="#ECF3FF" stroke-width="12"/>
  <path d="M402 568H500" stroke="#ECF3FF" stroke-width="12"/>
  <circle cx="450" cy="122" r="66" fill="#7EE7FF" fill-opacity="0.15"/>
  <defs>
    <linearGradient id="paint0_linear" x1="110" y1="120" x2="794" y2="780" gradientUnits="userSpaceOnUse">
      <stop stop-color="#7EE7FF"/>
      <stop offset="0.5" stop-color="#4F88FF"/>
      <stop offset="1" stop-color="#7C5CFF"/>
    </linearGradient>
    <radialGradient id="paint1_radial" cx="0" cy="0" r="1" gradientUnits="userSpaceOnUse" gradientTransform="translate(449.5 188.5) rotate(90) scale(288.5)">
      <stop stop-color="#2D6CFF"/>
      <stop offset="1" stop-color="#0A1324" stop-opacity="0"/>
    </radialGradient>
  </defs>
</svg>
