<svg width="720" height="420" viewBox="0 0 720 420" fill="none" xmlns="http://www.w3.org/2000/svg">
  <rect width="720" height="420" rx="32" fill="#08111F"/>
  <path d="M360 72L520 130V212C520 278 474 330 360 366C246 330 200 278 200 212V130L360 72Z" fill="#173566"/>
  <path d="M360 116L472 156V214C472 260 440 298 360 326C280 298 248 260 248 214V156L360 116Z" fill="#264B8A"/>
  <rect x="314" y="182" width="92" height="88" rx="22" fill="#091120"/>
  <path d="M330 182V168C330 151.431 343.431 138 360 138C376.569 138 390 151.431 390 168V182" stroke="#7EE7FF" stroke-width="10" stroke-linecap="round"/>
  <circle cx="360" cy="220" r="16" fill="#7EE7FF"/>
  <path d="M360 236V252" stroke="#7EE7FF" stroke-width="10" stroke-linecap="round"/>
</svg>
